<svg width="32" height="32" viewBox="0 0 32 32" fill="none" xmlns="http://www.w3.org/2000/svg">
<rect width="32" height="32" rx="16" fill="#6B7280"/>
<path d="M24 11.0667C23.4 11.3333 22.8 11.5333 22.1333 11.6C22.8 11.2 23.3333 10.5333 23.6 9.79999C22.9333 10.2 22.2667 10.4667 21.5333 10.6C20.9333 9.93333 20.0667 9.53333 19.1333 9.53333C17.3333 9.53333 15.8667 11 15.8667 12.8C15.8667 13.0667 15.8667 13.3333 15.9333 13.5333C13.1333 13.4 10.7333 12.0667 9.13333 10.0667C8.8 10.6 8.66667 11.1333 8.66667 11.7333C8.66667 12.8667 9.26667 13.8667 10.1333 14.4667C9.6 14.4667 9.06667 14.3333 8.66667 14.0667C8.66667 14.0667 8.66667 14.0667 8.66667 14.1333C8.66667 15.7333 9.8 17.0667 11.2667 17.3333C11 17.4 10.7333 17.4667 10.4 17.4667C10.2 17.4667 10 17.4667 9.8 17.4C10.2 18.7333 11.4 19.6667 12.8667 19.6667C11.7333 20.5333 10.3333 21.0667 8.8 21.0667C8.53333 21.0667 8.26667 21.0667 8 21C9.46667 21.9333 11.2 22.4667 13 22.4667C19.0667 22.4667 22.3333 17.4667 22.3333 13.1333C22.3333 13 22.3333 12.8667 22.3333 12.7333C23 12.2667 23.5333 11.6667 24 11.0667Z" fill="white"/>
</svg>
